<svg xmlns="http://www.w3.org/2000/svg" width="800" height="600" viewBox="0 0 800 600">
  <rect width="800" height="600" fill="#f8fafc"/>
  
  <!-- Header -->
  <rect x="0" y="0" width="800" height="60" fill="#0A4D4C"/>
  <text x="40" y="38" fill="white" font-family="Arial" font-size="20" font-weight="bold">NSMPI</text>
  <text x="650" y="38" fill="white" font-family="Arial" font-size="14">Dr. Nadia Fouad</text>
  
  <!-- Title -->
  <text x="40" y="100" fill="#1e293b" font-family="Arial" font-size="24" font-weight="bold">Therapist Dashboard</text>
  
  <!-- Stats Cards -->
  <rect x="40" y="120" width="170" height="90" rx="8" fill="white" stroke="#e2e8f0"/>
  <text x="60" y="155" fill="#64748b" font-family="Arial" font-size="12">Assigned Students</text>
  <text x="60" y="185" fill="#0A4D4C" font-family="Arial" font-size="28" font-weight="bold">18</text>
  <text x="60" y="200" fill="#22c55e" font-family="Arial" font-size="11">+3 this week</text>
  
  <rect x="230" y="120" width="170" height="90" rx="8" fill="white" stroke="#e2e8f0"/>
  <text x="250" y="155" fill="#64748b" font-family="Arial" font-size="12">Today's Sessions</text>
  <text x="250" y="185" fill="#0A4D4C" font-family="Arial" font-size="28" font-weight="bold">4</text>
  <text x="250" y="200" fill="#64748b" font-family="Arial" font-size="11">Next at 2:00 PM</text>
  
  <rect x="420" y="120" width="170" height="90" rx="8" fill="white" stroke="#e2e8f0"/>
  <text x="440" y="155" fill="#64748b" font-family="Arial" font-size="12">This Week</text>
  <text x="440" y="185" fill="#0A4D4C" font-family="Arial" font-size="28" font-weight="bold">12</text>
  <text x="440" y="200" fill="#64748b" font-family="Arial" font-size="11">Sessions completed</text>
  
  <rect x="610" y="120" width="150" height="90" rx="8" fill="white" stroke="#e2e8f0"/>
  <text x="630" y="155" fill="#64748b" font-family="Arial" font-size="12">Utilization</text>
  <text x="630" y="185" fill="#0A4D4C" font-family="Arial" font-size="28" font-weight="bold">72%</text>
  <text x="630" y="200" fill="#22c55e" font-family="Arial" font-size="11">On target</text>
  
  <!-- Today's Schedule -->
  <rect x="40" y="230" width="480" height="340" rx="8" fill="white" stroke="#e2e8f0"/>
  <text x="60" y="265" fill="#1e293b" font-family="Arial" font-size="16" font-weight="bold">Today's Schedule</text>
  
  <!-- Session Items -->
  <rect x="60" y="290" width="440" height="60" rx="6" fill="#ecfdf5"/>
  <text x="80" y="315" fill="#065f46" font-family="Arial" font-size="14" font-weight="bold">9:00 AM</text>
  <text x="80" y="335" fill="#374151" font-family="Arial" font-size="13">Ahmed Hassan</text>
  <text x="350" y="325" fill="#065f46" font-family="Arial" font-size="12">Completed</text>
  
  <rect x="60" y="360" width="440" height="60" rx="6" fill="#eff6ff"/>
  <text x="80" y="385" fill="#1e40af" font-family="Arial" font-size="14" font-weight="bold">11:00 AM</text>
  <text x="80" y="405" fill="#374151" font-family="Arial" font-size="13">Sara Mohamed</text>
  <text x="350" y="395" fill="#1e40af" font-family="Arial" font-size="12">In Progress</text>
  
  <rect x="60" y="430" width="440" height="60" rx="6" fill="#f1f5f9"/>
  <text x="80" y="455" fill="#374151" font-family="Arial" font-size="14" font-weight="bold">2:00 PM</text>
  <text x="80" y="475" fill="#374151" font-family="Arial" font-size="13">Omar Khalil</text>
  <text x="350" y="465" fill="#6b7280" font-family="Arial" font-size="12">Scheduled</text>
  
  <rect x="60" y="500" width="440" height="60" rx="6" fill="#f1f5f9"/>
  <text x="80" y="525" fill="#374151" font-family="Arial" font-size="14" font-weight="bold">4:00 PM</text>
  <text x="80" y="545" fill="#374151" font-family="Arial" font-size="13">Fatima Ali</text>
  <text x="350" y="535" fill="#6b7280" font-family="Arial" font-size="12">Scheduled</text>
  
  <!-- Assigned Students -->
  <rect x="540" y="230" width="220" height="340" rx="8" fill="white" stroke="#e2e8f0"/>
  <text x="560" y="265" fill="#1e293b" font-family="Arial" font-size="16" font-weight="bold">My Students</text>
  
  <rect x="560" y="285" width="180" height="40" rx="4" fill="#f9fafb"/>
  <text x="570" y="300" fill="#374151" font-family="Arial" font-size="12" font-weight="bold">Ahmed H.</text>
  <text x="570" y="315" fill="#6b7280" font-family="Arial" font-size="10">High Risk • 5 sessions</text>
  
  <rect x="560" y="335" width="180" height="40" rx="4" fill="#f9fafb"/>
  <text x="570" y="350" fill="#374151" font-family="Arial" font-size="12" font-weight="bold">Sara M.</text>
  <text x="570" y="365" fill="#6b7280" font-family="Arial" font-size="10">Moderate • 3 sessions</text>
  
  <rect x="560" y="385" width="180" height="40" rx="4" fill="#f9fafb"/>
  <text x="570" y="400" fill="#374151" font-family="Arial" font-size="12" font-weight="bold">Omar K.</text>
  <text x="570" y="415" fill="#6b7280" font-family="Arial" font-size="10">Moderate • 2 sessions</text>
  
  <rect x="560" y="435" width="180" height="40" rx="4" fill="#f9fafb"/>
  <text x="570" y="450" fill="#374151" font-family="Arial" font-size="12" font-weight="bold">Fatima A.</text>
  <text x="570" y="465" fill="#6b7280" font-family="Arial" font-size="10">High Risk • 4 sessions</text>
  
  <rect x="560" y="490" width="180" height="35" rx="4" fill="#0A4D4C"/>
  <text x="650" y="512" text-anchor="middle" fill="white" font-family="Arial" font-size="12">View All Students</text>
  
  <!-- Footer Note -->
  <text x="400" y="590" text-anchor="middle" fill="#94a3b8" font-family="Arial" font-size="12">Screenshot Placeholder - Therapist Portal</text>
</svg>
