<svg xmlns="http://www.w3.org/2000/svg" width="800" height="600" viewBox="0 0 800 600">
  <rect width="800" height="600" fill="#f8fafc"/>
  
  <!-- Header -->
  <rect x="0" y="0" width="800" height="60" fill="#0A4D4C"/>
  <text x="40" y="38" fill="white" font-family="Arial" font-size="20" font-weight="bold">NSMPI</text>
  
  <!-- Title -->
  <text x="40" y="100" fill="#1e293b" font-family="Arial" font-size="24" font-weight="bold">Find a Therapist</text>
  
  <!-- Search Bar -->
  <rect x="40" y="120" width="500" height="45" rx="6" fill="white" stroke="#cbd5e1"/>
  <text x="60" y="148" fill="#94a3b8" font-family="Arial" font-size="14">Search by name or specialization...</text>
  
  <!-- Filters -->
  <rect x="560" y="120" width="100" height="45" rx="6" fill="white" stroke="#cbd5e1"/>
  <text x="580" y="148" fill="#334155" font-family="Arial" font-size="14">Location</text>
  
  <rect x="680" y="120" width="100" height="45" rx="6" fill="white" stroke="#cbd5e1"/>
  <text x="700" y="148" fill="#334155" font-family="Arial" font-size="14">Specialty</text>
  
  <!-- Therapist Cards -->
  <rect x="40" y="190" width="360" height="180" rx="8" fill="white" stroke="#e2e8f0"/>
  <rect x="60" y="210" width="60" height="60" rx="30" fill="#dbeafe"/>
  <text x="90" y="248" text-anchor="middle" fill="#1e40af" font-family="Arial" font-size="20" font-weight="bold">NF</text>
  <text x="140" y="235" fill="#1e293b" font-family="Arial" font-size="16" font-weight="bold">Dr. Nadia Fouad</text>
  <text x="140" y="255" fill="#64748b" font-family="Arial" font-size="12">Clinical Psychology</text>
  <text x="140" y="275" fill="#64748b" font-family="Arial" font-size="12">8 years experience</text>
  <text x="140" y="295" fill="#64748b" font-family="Arial" font-size="12">Cairo • Online & In-person</text>
  <rect x="60" y="320" width="140" height="35" rx="4" fill="#0A4D4C"/>
  <text x="130" y="342" text-anchor="middle" fill="white" font-family="Arial" font-size="12" font-weight="bold">Book Appointment</text>
  
  <rect x="420" y="190" width="360" height="180" rx="8" fill="white" stroke="#e2e8f0"/>
  <rect x="440" y="210" width="60" height="60" rx="30" fill="#dcfce7"/>
  <text x="470" y="248" text-anchor="middle" fill="#166534" font-family="Arial" font-size="20" font-weight="bold">OS</text>
  <text x="520" y="235" fill="#1e293b" font-family="Arial" font-size="16" font-weight="bold">Dr. Omar Said</text>
  <text x="520" y="255" fill="#64748b" font-family="Arial" font-size="12">Cognitive Behavioral Therapy</text>
  <text x="520" y="275" fill="#64748b" font-family="Arial" font-size="12">12 years experience</text>
  <text x="520" y="295" fill="#64748b" font-family="Arial" font-size="12">Alexandria • Online available</text>
  <rect x="440" y="320" width="140" height="35" rx="4" fill="#0A4D4C"/>
  <text x="510" y="342" text-anchor="middle" fill="white" font-family="Arial" font-size="12" font-weight="bold">Book Appointment</text>
  
  <rect x="40" y="390" width="360" height="180" rx="8" fill="white" stroke="#e2e8f0"/>
  <rect x="60" y="410" width="60" height="60" rx="30" fill="#f3e8ff"/>
  <text x="90" y="448" text-anchor="middle" fill="#7c3aed" font-family="Arial" font-size="20" font-weight="bold">LM</text>
  <text x="140" y="435" fill="#1e293b" font-family="Arial" font-size="16" font-weight="bold">Dr. Layla Mostafa</text>
  <text x="140" y="455" fill="#64748b" font-family="Arial" font-size="12">Child Psychology</text>
  <text x="140" y="475" fill="#64748b" font-family="Arial" font-size="12">6 years experience</text>
  <text x="140" y="495" fill="#64748b" font-family="Arial" font-size="12">Giza • In-person only</text>
  <rect x="60" y="520" width="140" height="35" rx="4" fill="#0A4D4C"/>
  <text x="130" y="542" text-anchor="middle" fill="white" font-family="Arial" font-size="12" font-weight="bold">Book Appointment</text>
  
  <!-- Footer Note -->
  <text x="400" y="590" text-anchor="middle" fill="#94a3b8" font-family="Arial" font-size="12">Screenshot Placeholder - Therapist Booking</text>
</svg>
